<?xml version="1.0" encoding="UTF-8" standalone="no"?>
<!DOCTYPE svg PUBLIC "-//W3C//DTD SVG 1.1//EN"
 "http://www.w3.org/Graphics/SVG/1.1/DTD/svg11.dtd">
<!-- Generated by graphviz version 2.47.0 (20210316.0004)
 -->
<!-- Title: dependencies Pages: 1 -->
<svg width="1107pt" height="284pt"
 viewBox="0.00 0.00 1107.00 284.00" xmlns="http://www.w3.org/2000/svg" xmlns:xlink="http://www.w3.org/1999/xlink">
<g id="graph0" class="graph" transform="scale(1 1) rotate(0) translate(4 280)">
<title>dependencies</title>
<polygon fill="white" stroke="transparent" points="-4,4 -4,-280 1103,-280 1103,4 -4,4"/>
<text text-anchor="start" x="528.51" y="-42.4" font-family="Times-12" font-weight="bold" font-size="14.00">Legend</text>
<polygon fill="#ffffb3" stroke="transparent" points="315.5,-10 315.5,-30 335.5,-30 335.5,-10 315.5,-10"/>
<text text-anchor="start" x="339.13" y="-15.4" font-family="Times-12" font-size="14.00"> &#160;Declarations</text>
<polygon fill="#8dd3c7" stroke="transparent" points="428.5,-10 428.5,-30 448.5,-30 448.5,-10 428.5,-10"/>
<text text-anchor="start" x="452.23" y="-15.4" font-family="Times-12" font-size="14.00"> &#160;Module</text>
<polygon fill="#80b1d3" stroke="transparent" points="514.5,-10 514.5,-30 534.5,-30 534.5,-10 514.5,-10"/>
<text text-anchor="start" x="538.28" y="-15.4" font-family="Times-12" font-size="14.00"> &#160;Bootstrap</text>
<polygon fill="#fdb462" stroke="transparent" points="611.5,-10 611.5,-30 631.5,-30 631.5,-10 611.5,-10"/>
<text text-anchor="start" x="635.17" y="-15.4" font-family="Times-12" font-size="14.00"> &#160;Providers</text>
<polygon fill="#fb8072" stroke="transparent" points="707.5,-10 707.5,-30 727.5,-30 727.5,-10 707.5,-10"/>
<text text-anchor="start" x="731.23" y="-15.4" font-family="Times-12" font-size="14.00"> &#160;Exports</text>
<g id="clust1" class="cluster">
<title>cluster_AuthModule</title>
<polygon fill="none" stroke="black" stroke-dasharray="1,5" points="8,-70 8,-268 1091,-268 1091,-70 8,-70"/>
</g>
<g id="clust3" class="cluster">
<title>cluster_AuthModule_imports</title>
<polygon fill="none" stroke="black" points="975,-78 975,-130 1083,-130 1083,-78 975,-78"/>
</g>
<g id="clust4" class="cluster">
<title>cluster_AuthModule_exports</title>
<polygon fill="none" stroke="black" points="449,-208 449,-260 728,-260 728,-208 449,-208"/>
</g>
<g id="clust6" class="cluster">
<title>cluster_AuthModule_providers</title>
<polygon fill="none" stroke="black" points="16,-78 16,-130 967,-130 967,-78 16,-78"/>
</g>
<!-- EmailModule -->
<g id="node1" class="node">
<title>EmailModule</title>
<polygon fill="#8dd3c7" stroke="black" points="1075.49,-122 1072.49,-126 1051.49,-126 1048.49,-122 982.51,-122 982.51,-86 1075.49,-86 1075.49,-122"/>
<text text-anchor="middle" x="1029" y="-99.8" font-family="Times,serif" font-size="14.00">EmailModule</text>
</g>
<!-- AuthModule -->
<g id="node2" class="node">
<title>AuthModule</title>
<polygon fill="#8dd3c7" stroke="black" points="638.55,-187 635.55,-191 614.55,-191 611.55,-187 551.45,-187 551.45,-151 638.55,-151 638.55,-187"/>
<text text-anchor="middle" x="595" y="-164.8" font-family="Times,serif" font-size="14.00">AuthModule</text>
</g>
<!-- EmailModule&#45;&gt;AuthModule -->
<g id="edge1" class="edge">
<title>EmailModule&#45;&gt;AuthModule</title>
<path fill="none" stroke="black" d="M1029,-122.29C1029,-144.21 1029,-178 1029,-178 1029,-178 648.6,-178 648.6,-178"/>
<polygon fill="black" stroke="black" points="648.6,-174.5 638.6,-178 648.6,-181.5 648.6,-174.5"/>
</g>
<!-- JwtAuthService  -->
<g id="node3" class="node">
<title>JwtAuthService </title>
<polygon fill="#fb8072" stroke="black" points="720.42,-252 611.58,-252 611.58,-216 720.42,-216 720.42,-252"/>
<text text-anchor="middle" x="666" y="-229.8" font-family="Times,serif" font-size="14.00">JwtAuthService </text>
</g>
<!-- AuthModule&#45;&gt;JwtAuthService  -->
<g id="edge2" class="edge">
<title>AuthModule&#45;&gt;JwtAuthService </title>
<path fill="none" stroke="black" stroke-dasharray="5,2" d="M625.16,-187.11C625.16,-187.11 625.16,-205.99 625.16,-205.99"/>
<polygon fill="black" stroke="black" points="621.66,-205.99 625.16,-215.99 628.66,-205.99 621.66,-205.99"/>
</g>
<!-- PostgresAuthService  -->
<g id="node4" class="node">
<title>PostgresAuthService </title>
<polygon fill="#fb8072" stroke="black" points="593.41,-252 456.59,-252 456.59,-216 593.41,-216 593.41,-252"/>
<text text-anchor="middle" x="525" y="-229.8" font-family="Times,serif" font-size="14.00">PostgresAuthService </text>
</g>
<!-- AuthModule&#45;&gt;PostgresAuthService  -->
<g id="edge3" class="edge">
<title>AuthModule&#45;&gt;PostgresAuthService </title>
<path fill="none" stroke="black" stroke-dasharray="5,2" d="M572.34,-187.11C572.34,-187.11 572.34,-205.99 572.34,-205.99"/>
<polygon fill="black" stroke="black" points="568.84,-205.99 572.34,-215.99 575.84,-205.99 568.84,-205.99"/>
</g>
<!-- EmailService -->
<g id="node5" class="node">
<title>EmailService</title>
<ellipse fill="#fdb462" stroke="black" cx="896" cy="-104" rx="63.12" ry="18"/>
<text text-anchor="middle" x="896" y="-99.8" font-family="Times,serif" font-size="14.00">EmailService</text>
</g>
<!-- EmailService&#45;&gt;AuthModule -->
<g id="edge4" class="edge">
<title>EmailService&#45;&gt;AuthModule</title>
<path fill="none" stroke="black" d="M896,-122.11C896,-141.34 896,-169 896,-169 896,-169 648.77,-169 648.77,-169"/>
<polygon fill="black" stroke="black" points="648.77,-165.5 638.77,-169 648.77,-172.5 648.77,-165.5"/>
</g>
<!-- JwtAuthService -->
<g id="node6" class="node">
<title>JwtAuthService</title>
<ellipse fill="#fdb462" stroke="black" cx="742" cy="-104" rx="72.93" ry="18"/>
<text text-anchor="middle" x="742" y="-99.8" font-family="Times,serif" font-size="14.00">JwtAuthService</text>
</g>
<!-- JwtAuthService&#45;&gt;AuthModule -->
<g id="edge5" class="edge">
<title>JwtAuthService&#45;&gt;AuthModule</title>
<path fill="none" stroke="black" d="M694.87,-117.84C694.87,-134.43 694.87,-160 694.87,-160 694.87,-160 648.81,-160 648.81,-160"/>
<polygon fill="black" stroke="black" points="648.81,-156.5 638.81,-160 648.81,-163.5 648.81,-156.5"/>
</g>
<!-- JwtStrategy -->
<g id="node7" class="node">
<title>JwtStrategy</title>
<ellipse fill="#fdb462" stroke="black" cx="595" cy="-104" rx="56.76" ry="18"/>
<text text-anchor="middle" x="595" y="-99.8" font-family="Times,serif" font-size="14.00">JwtStrategy</text>
</g>
<!-- JwtStrategy&#45;&gt;AuthModule -->
<g id="edge6" class="edge">
<title>JwtStrategy&#45;&gt;AuthModule</title>
<path fill="none" stroke="black" d="M595,-122.11C595,-122.11 595,-140.99 595,-140.99"/>
<polygon fill="black" stroke="black" points="591.5,-140.99 595,-150.99 598.5,-140.99 591.5,-140.99"/>
</g>
<!-- LocalStrategy -->
<g id="node8" class="node">
<title>LocalStrategy</title>
<ellipse fill="#fdb462" stroke="black" cx="455" cy="-104" rx="65.41" ry="18"/>
<text text-anchor="middle" x="455" y="-99.8" font-family="Times,serif" font-size="14.00">LocalStrategy</text>
</g>
<!-- LocalStrategy&#45;&gt;AuthModule -->
<g id="edge7" class="edge">
<title>LocalStrategy&#45;&gt;AuthModule</title>
<path fill="none" stroke="black" d="M488.37,-119.6C488.37,-136.17 488.37,-160 488.37,-160 488.37,-160 541.32,-160 541.32,-160"/>
<polygon fill="black" stroke="black" points="541.32,-163.5 551.32,-160 541.32,-156.5 541.32,-163.5"/>
</g>
<!-- PostgresAuthService -->
<g id="node9" class="node">
<title>PostgresAuthService</title>
<ellipse fill="#fdb462" stroke="black" cx="280" cy="-104" rx="92.05" ry="18"/>
<text text-anchor="middle" x="280" y="-99.8" font-family="Times,serif" font-size="14.00">PostgresAuthService</text>
</g>
<!-- PostgresAuthService&#45;&gt;AuthModule -->
<g id="edge8" class="edge">
<title>PostgresAuthService&#45;&gt;AuthModule</title>
<path fill="none" stroke="black" d="M280,-122.11C280,-141.34 280,-169 280,-169 280,-169 541.2,-169 541.2,-169"/>
<polygon fill="black" stroke="black" points="541.2,-172.5 551.2,-169 541.2,-165.5 541.2,-172.5"/>
</g>
<!-- PostgresService -->
<g id="node10" class="node">
<title>PostgresService</title>
<ellipse fill="#fdb462" stroke="black" cx="97" cy="-104" rx="72.93" ry="18"/>
<text text-anchor="middle" x="97" y="-99.8" font-family="Times,serif" font-size="14.00">PostgresService</text>
</g>
<!-- PostgresService&#45;&gt;AuthModule -->
<g id="edge9" class="edge">
<title>PostgresService&#45;&gt;AuthModule</title>
<path fill="none" stroke="black" d="M97,-122.29C97,-144.21 97,-178 97,-178 97,-178 541.24,-178 541.24,-178"/>
<polygon fill="black" stroke="black" points="541.24,-181.5 551.24,-178 541.24,-174.5 541.24,-181.5"/>
</g>
</g>
</svg>
