<?xml version="1.0" encoding="UTF-8" standalone="no"?>
<!DOCTYPE svg PUBLIC "-//W3C//DTD SVG 1.1//EN"
 "http://www.w3.org/Graphics/SVG/1.1/DTD/svg11.dtd">
<!-- Generated by graphviz version 2.47.0 (20210316.0004)
 -->
<!-- Title: dependencies Pages: 1 -->
<svg width="1543pt" height="279pt"
 viewBox="0.00 0.00 1543.00 279.00" xmlns="http://www.w3.org/2000/svg" xmlns:xlink="http://www.w3.org/1999/xlink">
<g id="graph0" class="graph" transform="scale(1 1) rotate(0) translate(4 275)">
<title>dependencies</title>
<polygon fill="white" stroke="transparent" points="-4,4 -4,-275 1539,-275 1539,4 -4,4"/>
<text text-anchor="start" x="746.51" y="-42.4" font-family="Times-12" font-weight="bold" font-size="14.00">Legend</text>
<polygon fill="#ffffb3" stroke="transparent" points="533.5,-10 533.5,-30 553.5,-30 553.5,-10 533.5,-10"/>
<text text-anchor="start" x="557.13" y="-15.4" font-family="Times-12" font-size="14.00"> &#160;Declarations</text>
<polygon fill="#8dd3c7" stroke="transparent" points="646.5,-10 646.5,-30 666.5,-30 666.5,-10 646.5,-10"/>
<text text-anchor="start" x="670.23" y="-15.4" font-family="Times-12" font-size="14.00"> &#160;Module</text>
<polygon fill="#80b1d3" stroke="transparent" points="732.5,-10 732.5,-30 752.5,-30 752.5,-10 732.5,-10"/>
<text text-anchor="start" x="756.28" y="-15.4" font-family="Times-12" font-size="14.00"> &#160;Bootstrap</text>
<polygon fill="#fdb462" stroke="transparent" points="829.5,-10 829.5,-30 849.5,-30 849.5,-10 829.5,-10"/>
<text text-anchor="start" x="853.17" y="-15.4" font-family="Times-12" font-size="14.00"> &#160;Providers</text>
<polygon fill="#fb8072" stroke="transparent" points="925.5,-10 925.5,-30 945.5,-30 945.5,-10 925.5,-10"/>
<text text-anchor="start" x="949.23" y="-15.4" font-family="Times-12" font-size="14.00"> &#160;Exports</text>
<g id="clust1" class="cluster">
<title>cluster_AppModule</title>
<polygon fill="none" stroke="black" stroke-dasharray="1,5" points="1269,-138 1269,-263 1527,-263 1527,-138 1269,-138"/>
</g>
<g id="clust3" class="cluster">
<title>cluster_AppModule_imports</title>
<polygon fill="none" stroke="black" points="1415,-146 1415,-198 1519,-198 1519,-146 1415,-146"/>
</g>
<g id="clust6" class="cluster">
<title>cluster_AppModule_providers</title>
<polygon fill="none" stroke="black" points="1277,-146 1277,-198 1407,-198 1407,-146 1277,-146"/>
</g>
<g id="clust7" class="cluster">
<title>cluster_AuthModule</title>
<polygon fill="none" stroke="black" stroke-dasharray="1,5" points="8,-70 8,-206 1261,-206 1261,-70 8,-70"/>
</g>
<g id="clust9" class="cluster">
<title>cluster_AuthModule_imports</title>
<polygon fill="none" stroke="black" points="589,-146 589,-198 697,-198 697,-146 589,-146"/>
</g>
<g id="clust10" class="cluster">
<title>cluster_AuthModule_exports</title>
<polygon fill="none" stroke="black" points="974,-78 974,-130 1253,-130 1253,-78 974,-78"/>
</g>
<g id="clust12" class="cluster">
<title>cluster_AuthModule_providers</title>
<polygon fill="none" stroke="black" points="16,-78 16,-130 966,-130 966,-78 16,-78"/>
</g>
<!-- AuthModule -->
<g id="node1" class="node">
<title>AuthModule</title>
<polygon fill="#8dd3c7" stroke="black" points="1510.55,-190 1507.55,-194 1486.55,-194 1483.55,-190 1423.45,-190 1423.45,-154 1510.55,-154 1510.55,-190"/>
<text text-anchor="middle" x="1467" y="-167.8" font-family="Times,serif" font-size="14.00">AuthModule</text>
</g>
<!-- AppModule -->
<g id="node2" class="node">
<title>AppModule</title>
<polygon fill="#8dd3c7" stroke="black" points="1445.66,-255 1442.66,-259 1421.66,-259 1418.66,-255 1362.34,-255 1362.34,-219 1445.66,-219 1445.66,-255"/>
<text text-anchor="middle" x="1404" y="-232.8" font-family="Times,serif" font-size="14.00">AppModule</text>
</g>
<!-- AuthModule&#45;&gt;AppModule -->
<g id="edge1" class="edge">
<title>AuthModule&#45;&gt;AppModule</title>
<path fill="none" stroke="black" d="M1438.29,-190.11C1438.29,-190.11 1438.29,-208.99 1438.29,-208.99"/>
<polygon fill="black" stroke="black" points="1434.79,-208.99 1438.29,-218.99 1441.79,-208.99 1434.79,-208.99"/>
</g>
<!-- JwtAuthService  -->
<g id="node5" class="node">
<title>JwtAuthService </title>
<polygon fill="#fb8072" stroke="black" points="1245.42,-122 1136.58,-122 1136.58,-86 1245.42,-86 1245.42,-122"/>
<text text-anchor="middle" x="1191" y="-99.8" font-family="Times,serif" font-size="14.00">JwtAuthService </text>
</g>
<!-- AuthModule&#45;&gt;JwtAuthService  -->
<g id="edge4" class="edge">
<title>AuthModule&#45;&gt;JwtAuthService </title>
<path fill="none" stroke="black" stroke-dasharray="5,2" d="M1491.32,-153.78C1491.32,-133.63 1491.32,-104 1491.32,-104 1491.32,-104 1255.73,-104 1255.73,-104"/>
<polygon fill="black" stroke="black" points="1255.73,-100.5 1245.73,-104 1255.73,-107.5 1255.73,-100.5"/>
</g>
<!-- PostgresAuthService  -->
<g id="node6" class="node">
<title>PostgresAuthService </title>
<polygon fill="#fb8072" stroke="black" points="1118.41,-122 981.59,-122 981.59,-86 1118.41,-86 1118.41,-122"/>
<text text-anchor="middle" x="1050" y="-99.8" font-family="Times,serif" font-size="14.00">PostgresAuthService </text>
</g>
<!-- AuthModule&#45;&gt;PostgresAuthService  -->
<g id="edge5" class="edge">
<title>AuthModule&#45;&gt;PostgresAuthService </title>
<path fill="none" stroke="black" stroke-dasharray="5,2" d="M1501.05,-153.82C1501.05,-140.96 1501.05,-126 1501.05,-126 1501.05,-126 1050,-126 1050,-126 1050,-126 1050,-125.62 1050,-125.62"/>
<polygon fill="black" stroke="black" points="1053.5,-132.17 1050,-122.17 1046.5,-132.17 1053.5,-132.17"/>
</g>
<!-- AppService -->
<g id="node3" class="node">
<title>AppService</title>
<ellipse fill="#fdb462" stroke="black" cx="1342" cy="-172" rx="56.74" ry="18"/>
<text text-anchor="middle" x="1342" y="-167.8" font-family="Times,serif" font-size="14.00">AppService</text>
</g>
<!-- AppService&#45;&gt;AppModule -->
<g id="edge2" class="edge">
<title>AppService&#45;&gt;AppModule</title>
<path fill="none" stroke="black" d="M1380.4,-185.47C1380.4,-185.47 1380.4,-208.86 1380.4,-208.86"/>
<polygon fill="black" stroke="black" points="1376.9,-208.86 1380.4,-218.86 1383.9,-208.86 1376.9,-208.86"/>
</g>
<!-- EmailModule -->
<g id="node4" class="node">
<title>EmailModule</title>
<polygon fill="#8dd3c7" stroke="black" points="689.49,-190 686.49,-194 665.49,-194 662.49,-190 596.51,-190 596.51,-154 689.49,-154 689.49,-190"/>
<text text-anchor="middle" x="643" y="-167.8" font-family="Times,serif" font-size="14.00">EmailModule</text>
</g>
<!-- EmailModule&#45;&gt;AuthModule -->
<g id="edge3" class="edge">
<title>EmailModule&#45;&gt;AuthModule</title>
<path fill="none" stroke="black" d="M643,-190.04C643,-197.75 643,-205 643,-205 643,-205 1430.76,-205 1430.76,-205 1430.76,-205 1430.76,-200.04 1430.76,-200.04"/>
<polygon fill="black" stroke="black" points="1434.26,-200.04 1430.76,-190.04 1427.26,-200.04 1434.26,-200.04"/>
</g>
<!-- EmailService -->
<g id="node7" class="node">
<title>EmailService</title>
<ellipse fill="#fdb462" stroke="black" cx="87" cy="-104" rx="63.12" ry="18"/>
<text text-anchor="middle" x="87" y="-99.8" font-family="Times,serif" font-size="14.00">EmailService</text>
</g>
<!-- EmailService&#45;&gt;AuthModule -->
<g id="edge6" class="edge">
<title>EmailService&#45;&gt;AuthModule</title>
<path fill="none" stroke="black" d="M65.98,-121.13C65.98,-134.21 65.98,-150 65.98,-150 65.98,-150 1432.95,-150 1432.95,-150 1432.95,-150 1432.95,-150.38 1432.95,-150.38"/>
<polygon fill="black" stroke="black" points="1429.45,-143.83 1432.95,-153.83 1436.45,-143.83 1429.45,-143.83"/>
</g>
<!-- EmailService&#45;&gt;EmailModule -->
<g id="edge12" class="edge">
<title>EmailService&#45;&gt;EmailModule</title>
<path fill="none" stroke="black" d="M108.02,-121.16C108.02,-141.3 108.02,-172 108.02,-172 108.02,-172 586.46,-172 586.46,-172"/>
<polygon fill="black" stroke="black" points="586.46,-175.5 596.46,-172 586.46,-168.5 586.46,-175.5"/>
</g>
<!-- JwtAuthService -->
<g id="node8" class="node">
<title>JwtAuthService</title>
<ellipse fill="#fdb462" stroke="black" cx="722" cy="-104" rx="72.93" ry="18"/>
<text text-anchor="middle" x="722" y="-99.8" font-family="Times,serif" font-size="14.00">JwtAuthService</text>
</g>
<!-- JwtAuthService&#45;&gt;AuthModule -->
<g id="edge7" class="edge">
<title>JwtAuthService&#45;&gt;AuthModule</title>
<path fill="none" stroke="black" d="M742.1,-121.45C742.1,-128.05 742.1,-134 742.1,-134 742.1,-134 1471.86,-134 1471.86,-134 1471.86,-134 1471.86,-143.89 1471.86,-143.89"/>
<polygon fill="black" stroke="black" points="1468.36,-143.89 1471.86,-153.89 1475.36,-143.89 1468.36,-143.89"/>
</g>
<!-- JwtStrategy -->
<g id="node9" class="node">
<title>JwtStrategy</title>
<ellipse fill="#fdb462" stroke="black" cx="575" cy="-104" rx="56.76" ry="18"/>
<text text-anchor="middle" x="575" y="-99.8" font-family="Times,serif" font-size="14.00">JwtStrategy</text>
</g>
<!-- JwtStrategy&#45;&gt;AuthModule -->
<g id="edge8" class="edge">
<title>JwtStrategy&#45;&gt;AuthModule</title>
<path fill="none" stroke="black" d="M614.07,-117.05C614.07,-126.64 614.07,-138 614.07,-138 614.07,-138 1462.14,-138 1462.14,-138 1462.14,-138 1462.14,-143.81 1462.14,-143.81"/>
<polygon fill="black" stroke="black" points="1458.64,-143.81 1462.14,-153.81 1465.64,-143.81 1458.64,-143.81"/>
</g>
<!-- LocalStrategy -->
<g id="node10" class="node">
<title>LocalStrategy</title>
<ellipse fill="#fdb462" stroke="black" cx="435" cy="-104" rx="65.41" ry="18"/>
<text text-anchor="middle" x="435" y="-99.8" font-family="Times,serif" font-size="14.00">LocalStrategy</text>
</g>
<!-- LocalStrategy&#45;&gt;AuthModule -->
<g id="edge9" class="edge">
<title>LocalStrategy&#45;&gt;AuthModule</title>
<path fill="none" stroke="black" d="M435,-122.11C435,-131.9 435,-142 435,-142 435,-142 1452.41,-142 1452.41,-142 1452.41,-142 1452.41,-143.86 1452.41,-143.86"/>
<polygon fill="black" stroke="black" points="1448.91,-143.86 1452.41,-153.86 1455.91,-143.86 1448.91,-143.86"/>
</g>
<!-- PostgresAuthService -->
<g id="node11" class="node">
<title>PostgresAuthService</title>
<ellipse fill="#fdb462" stroke="black" cx="260" cy="-104" rx="92.05" ry="18"/>
<text text-anchor="middle" x="260" y="-99.8" font-family="Times,serif" font-size="14.00">PostgresAuthService</text>
</g>
<!-- PostgresAuthService&#45;&gt;AuthModule -->
<g id="edge10" class="edge">
<title>PostgresAuthService&#45;&gt;AuthModule</title>
<path fill="none" stroke="black" d="M260,-122.06C260,-133.44 260,-146 260,-146 260,-146 1442.68,-146 1442.68,-146 1442.68,-146 1442.68,-146.79 1442.68,-146.79"/>
<polygon fill="black" stroke="black" points="1439.18,-143.94 1442.68,-153.94 1446.18,-143.94 1439.18,-143.94"/>
</g>
<!-- PostgresService -->
<g id="node12" class="node">
<title>PostgresService</title>
<ellipse fill="#fdb462" stroke="black" cx="885" cy="-104" rx="72.93" ry="18"/>
<text text-anchor="middle" x="885" y="-99.8" font-family="Times,serif" font-size="14.00">PostgresService</text>
</g>
<!-- PostgresService&#45;&gt;AuthModule -->
<g id="edge11" class="edge">
<title>PostgresService&#45;&gt;AuthModule</title>
<path fill="none" stroke="black" d="M885,-122.06C885,-126.49 885,-130 885,-130 885,-130 1481.59,-130 1481.59,-130 1481.59,-130 1481.59,-143.94 1481.59,-143.94"/>
<polygon fill="black" stroke="black" points="1478.09,-143.94 1481.59,-153.94 1485.09,-143.94 1478.09,-143.94"/>
</g>
</g>
</svg>
